<svg width="325" height="54" viewBox="0 0 325 54" fill="none" xmlns="http://www.w3.org/2000/svg">
<path d="M8.88 21.8C8.88 24.7013 9.17867 27.4107 9.776 29.928C10.416 32.4453 11.568 34.664 13.232 36.584C14.896 38.504 16.9867 39.464 19.504 39.464C21.424 39.464 23.0667 38.9733 24.432 37.992C25.7973 36.968 26.8427 35.6027 27.568 33.896C28.2933 32.1893 28.8053 30.44 29.104 28.648C29.4453 26.8133 29.616 24.872 29.616 22.824C29.616 19.9653 29.296 17.256 28.656 14.696C28.016 12.136 26.864 9.896 25.2 7.976C23.536 6.056 21.4667 5.096 18.992 5.096C17.072 5.096 15.4293 5.608 14.064 6.632C12.6987 7.656 11.6533 9.02133 10.928 10.728C10.2027 12.4347 9.66933 14.2053 9.328 16.04C9.02933 17.832 8.88 19.752 8.88 21.8ZM5.744 35.944C2.07467 32.104 0.24 27.56 0.24 22.312C0.24 17.064 2.096 12.52 5.808 8.68C9.52 4.84 14 2.92 19.248 2.92C24.496 2.92 28.976 4.84 32.688 8.68C36.4 12.52 38.256 17.064 38.256 22.312C38.256 27.56 36.3787 32.104 32.624 35.944C28.912 39.7413 24.4533 41.64 19.248 41.64C13.9573 41.64 9.456 39.7413 5.744 35.944ZM48.82 17.576C49.8013 17.576 50.292 18.4507 50.292 20.2C50.292 20.9253 49.9293 21.48 49.204 21.864C48.4787 22.248 47.7107 22.44 46.9 22.44C46.0467 22.44 45.2787 22.1413 44.596 21.544C43.956 20.9467 43.636 20.1787 43.636 19.24C43.636 17.064 44.7027 15.3573 46.836 14.12C49.012 12.84 51.828 12.2 55.284 12.2C59.3373 12.2 62.4947 13.224 64.756 15.272C67.0173 17.2773 68.148 19.8373 68.148 22.952V35.624C68.148 36.9893 68.3613 37.992 68.788 38.632C69.2573 39.272 69.812 39.592 70.452 39.592C71.0067 39.592 71.4973 39.4427 71.924 39.144C72.3933 38.8453 72.628 38.4827 72.628 38.056H73.78C73.78 40.36 71.4333 41.512 66.74 41.512C64.564 41.512 62.8787 40.744 61.684 39.208C59.124 40.8293 56.1587 41.64 52.788 41.64C45.6627 41.64 42.1 39.0373 42.1 33.832C42.1 32.7653 42.4627 31.8053 43.188 30.952C43.956 30.0987 45.108 29.3733 46.644 28.776C48.18 28.1787 49.5453 27.7093 50.74 27.368C51.9773 27.0267 53.6627 26.6427 55.796 26.216C57.9293 25.7467 59.38 25.4053 60.148 25.192C60.148 21.1813 59.8067 18.408 59.124 16.872C58.484 15.2933 56.9907 14.504 54.644 14.504C53.236 14.504 51.956 14.8027 50.804 15.4C49.6947 15.9547 49.0333 16.68 48.82 17.576ZM60.788 37.672C60.3613 36.52 60.148 35.24 60.148 33.832V26.6C56.5213 27.7093 54.132 28.6267 52.98 29.352C51.188 30.5467 50.292 32.0827 50.292 33.96C50.292 35.9227 50.6973 37.3307 51.508 38.184C52.3613 39.0373 53.3213 39.464 54.388 39.464C56.2653 39.464 58.3987 38.8667 60.788 37.672ZM74.2235 41V39.656C76.5275 39.656 77.8715 39.2293 78.2555 38.376V16.68C75.9515 16.5093 74.6075 16.424 74.2235 16.424V14.952C75.0342 14.952 76.9968 14.504 80.1115 13.608C83.2262 12.6693 85.2742 12.2 86.2555 12.2V14.888C88.3888 13.096 90.7355 12.2 93.2955 12.2C97.3915 12.2 100.57 12.968 102.832 14.504C105.093 15.9973 106.224 18.2587 106.224 21.288V38.376C106.608 39.2293 107.952 39.656 110.256 39.656V41H94.1915V39.656C96.4955 39.656 97.8395 39.2293 98.2235 38.376V20.84C98.2235 18.92 97.7755 17.3627 96.8795 16.168C96.0262 14.9733 94.7035 14.376 92.9115 14.376C90.2662 14.376 88.0475 15.2293 86.2555 16.936V38.376C86.6395 39.2293 87.9835 39.656 90.2875 39.656V41H74.2235ZM111.771 41V39.656C114.075 39.656 115.419 39.2293 115.803 38.376V5.16C113.499 4.98933 112.155 4.904 111.771 4.904V3.432C112.582 3.432 114.544 2.984 117.659 2.088C120.774 1.14933 122.822 0.679996 123.803 0.679996V14.696C126.363 13.032 128.902 12.2 131.419 12.2C135.643 12.2 138.843 12.8827 141.019 14.248C143.195 15.6133 144.283 17.8747 144.283 21.032V38.376C144.667 39.2293 146.011 39.656 148.315 39.656V41H132.251V39.656C134.555 39.656 135.899 39.2293 136.283 38.376V22.568C136.283 19.624 135.835 17.5333 134.939 16.296C134.086 15.016 132.784 14.376 131.035 14.376C128.475 14.376 126.064 15.144 123.803 16.68V38.376C124.187 39.2293 125.531 39.656 127.835 39.656V41H111.771ZM151.624 37.672C151.624 36.4347 152.051 35.4533 152.904 34.728C153.8 33.96 154.824 33.576 155.976 33.576C157 33.576 158.003 33.9387 158.984 34.664C159.965 35.3467 160.456 36.2853 160.456 37.48C160.456 38.7173 160.008 39.72 159.112 40.488C158.216 41.256 157.192 41.64 156.04 41.64C155.016 41.64 154.013 41.2773 153.032 40.552C152.093 39.8267 151.624 38.8667 151.624 37.672ZM164.599 41V39.656C166.903 39.656 168.247 39.2293 168.631 38.376V16.68C166.327 16.5093 164.982 16.424 164.599 16.424V14.952C165.409 14.952 167.372 14.504 170.487 13.608C173.601 12.6693 175.649 12.2 176.631 12.2V14.888C178.764 13.096 181.111 12.2 183.671 12.2C187.767 12.2 190.945 12.968 193.207 14.504C195.468 15.9973 196.599 18.2587 196.599 21.288V38.376C196.983 39.2293 198.327 39.656 200.631 39.656V41H184.567V39.656C186.871 39.656 188.215 39.2293 188.599 38.376V20.84C188.599 18.92 188.151 17.3627 187.255 16.168C186.401 14.9733 185.079 14.376 183.287 14.376C180.641 14.376 178.423 15.2293 176.631 16.936V38.376C177.015 39.2293 178.359 39.656 180.663 39.656V41H164.599ZM231.72 12.2V39.144C231.72 43.4107 230.461 46.9093 227.944 49.64C225.469 52.4133 222.163 53.8 218.024 53.8C214.099 53.8 210.984 53.288 208.68 52.264C206.376 51.24 205.224 49.8747 205.224 48.168C205.224 45.4373 206.376 44.072 208.68 44.072C209.533 44.072 210.237 44.3707 210.792 44.968C211.347 45.5653 211.624 46.2693 211.624 47.08C211.624 48.4453 211.091 49.3413 210.024 49.768C211.176 50.92 213.629 51.496 217.384 51.496C219.347 51.496 220.84 50.6427 221.864 48.936C222.888 47.272 223.485 44.3707 223.656 40.232C221.864 41.1707 219.667 41.64 217.064 41.64C215.656 41.64 214.205 41.4267 212.712 41C211.261 40.5307 209.768 39.784 208.232 38.76C206.696 37.736 205.437 36.2213 204.456 34.216C203.517 32.168 203.048 29.7787 203.048 27.048C203.048 22.312 204.52 18.664 207.464 16.104C210.408 13.5013 214.077 12.2 218.472 12.2C221.203 12.2 223.507 12.84 225.384 14.12C228.584 12.84 230.696 12.2 231.72 12.2ZM223.72 38.184V36.84V15.272C222.397 14.6747 220.776 14.376 218.856 14.376C213.864 14.376 211.368 18.6 211.368 27.048C211.368 29.5227 211.581 31.656 212.008 33.448C212.477 35.1973 213.053 36.4773 213.736 37.288C214.461 38.0987 215.144 38.6747 215.784 39.016C216.424 39.3147 217.064 39.464 217.704 39.464C220.008 39.464 222.013 39.0373 223.72 38.184ZM257.007 3.56V37.096C257.007 37.992 257.711 38.6533 259.119 39.08C260.527 39.464 262.106 39.656 263.855 39.656V41H242.223V39.656C243.972 39.656 245.551 39.464 246.959 39.08C248.367 38.6533 249.071 37.992 249.071 37.096V13.16C246.895 14.568 244.975 15.912 243.311 17.192L242.863 16.104L254.255 3.56H257.007ZM277.822 18.344C279.273 17.6613 280.851 17.32 282.558 17.32C291.305 17.32 295.678 21.2027 295.678 28.968C295.678 32.8507 294.483 35.944 292.094 38.248C289.747 40.5093 286.654 41.64 282.814 41.64C278.675 41.64 275.369 40.232 272.894 37.416C270.419 34.5573 269.182 30.9733 269.182 26.664C269.182 23.08 269.843 19.752 271.166 16.68C272.531 13.5653 274.217 11.048 276.222 9.128C278.227 7.16533 280.275 5.608 282.366 4.456C284.457 3.304 286.398 2.62133 288.19 2.408L289.022 4.584C282.921 6.12 279.187 10.7067 277.822 18.344ZM277.502 20.392C277.289 22.0133 277.182 24.104 277.182 26.664C277.182 31.2293 277.651 34.536 278.59 36.584C279.529 38.5893 280.937 39.592 282.814 39.592C286.057 39.592 287.678 35.88 287.678 28.456C287.678 27.3893 287.657 26.5787 287.614 26.024C287.614 25.4267 287.529 24.6587 287.358 23.72C287.187 22.7387 286.931 21.992 286.59 21.48C286.291 20.968 285.801 20.52 285.118 20.136C284.435 19.7093 283.625 19.496 282.686 19.496C280.425 19.496 278.697 19.7947 277.502 20.392ZM301.069 44.2H324.365V47.016H301.069V44.2Z" fill="black"/>
</svg>
