<svg width="123" height="21" viewBox="0 0 123 21" fill="none" xmlns="http://www.w3.org/2000/svg">
<path d="M4.08 8.8C4.08 9.888 4.192 10.904 4.416 11.848C4.656 12.792 5.088 13.624 5.712 14.344C6.336 15.064 7.12 15.424 8.064 15.424C8.784 15.424 9.4 15.24 9.912 14.872C10.424 14.488 10.816 13.976 11.088 13.336C11.36 12.696 11.552 12.04 11.664 11.368C11.792 10.68 11.856 9.952 11.856 9.184C11.856 8.112 11.736 7.096 11.496 6.136C11.256 5.176 10.824 4.336 10.2 3.616C9.576 2.896 8.8 2.536 7.872 2.536C7.152 2.536 6.536 2.728 6.024 3.112C5.512 3.496 5.12 4.008 4.848 4.648C4.576 5.288 4.376 5.952 4.248 6.64C4.136 7.312 4.08 8.032 4.08 8.8ZM2.904 14.104C1.528 12.664 0.84 10.96 0.84 8.992C0.84 7.024 1.536 5.32 2.928 3.88C4.32 2.44 6 1.72 7.968 1.72C9.936 1.72 11.616 2.44 13.008 3.88C14.4 5.32 15.096 7.024 15.096 8.992C15.096 10.96 14.392 12.664 12.984 14.104C11.592 15.528 9.92 16.24 7.968 16.24C5.984 16.24 4.296 15.528 2.904 14.104ZM19.0575 7.216C19.4255 7.216 19.6095 7.544 19.6095 8.2C19.6095 8.472 19.4735 8.68 19.2015 8.824C18.9295 8.968 18.6415 9.04 18.3375 9.04C18.0175 9.04 17.7295 8.928 17.4735 8.704C17.2335 8.48 17.1135 8.192 17.1135 7.84C17.1135 7.024 17.5135 6.384 18.3135 5.92C19.1295 5.44 20.1855 5.2 21.4815 5.2C23.0015 5.2 24.1855 5.584 25.0335 6.352C25.8815 7.104 26.3055 8.064 26.3055 9.232V13.984C26.3055 14.496 26.3855 14.872 26.5455 15.112C26.7215 15.352 26.9295 15.472 27.1695 15.472C27.3775 15.472 27.5615 15.416 27.7215 15.304C27.8975 15.192 27.9855 15.056 27.9855 14.896H28.4175C28.4175 15.76 27.5375 16.192 25.7775 16.192C24.9615 16.192 24.3295 15.904 23.8815 15.328C22.9215 15.936 21.8095 16.24 20.5455 16.24C17.8735 16.24 16.5375 15.264 16.5375 13.312C16.5375 12.912 16.6735 12.552 16.9455 12.232C17.2335 11.912 17.6655 11.64 18.2415 11.416C18.8175 11.192 19.3295 11.016 19.7775 10.888C20.2415 10.76 20.8735 10.616 21.6735 10.456C22.4735 10.28 23.0175 10.152 23.3055 10.072C23.3055 8.568 23.1775 7.528 22.9215 6.952C22.6815 6.36 22.1215 6.064 21.2415 6.064C20.7135 6.064 20.2335 6.176 19.8015 6.4C19.3855 6.608 19.1375 6.88 19.0575 7.216ZM23.5455 14.752C23.3855 14.32 23.3055 13.84 23.3055 13.312V10.6C21.9455 11.016 21.0495 11.36 20.6175 11.632C19.9455 12.08 19.6095 12.656 19.6095 13.36C19.6095 14.096 19.7615 14.624 20.0655 14.944C20.3855 15.264 20.7455 15.424 21.1455 15.424C21.8495 15.424 22.6495 15.2 23.5455 14.752ZM28.5838 16V15.496C29.4478 15.496 29.9518 15.336 30.0958 15.016V6.88C29.2318 6.816 28.7278 6.784 28.5838 6.784V6.232C28.8878 6.232 29.6238 6.064 30.7918 5.728C31.9598 5.376 32.7278 5.2 33.0958 5.2V6.208C33.8958 5.536 34.7758 5.2 35.7358 5.2C37.2718 5.2 38.4638 5.488 39.3118 6.064C40.1598 6.624 40.5838 7.472 40.5838 8.608V15.016C40.7278 15.336 41.2318 15.496 42.0958 15.496V16H36.0718V15.496C36.9358 15.496 37.4398 15.336 37.5838 15.016V8.44C37.5838 7.72 37.4158 7.136 37.0798 6.688C36.7598 6.24 36.2638 6.016 35.5918 6.016C34.5998 6.016 33.7678 6.336 33.0958 6.976V15.016C33.2398 15.336 33.7438 15.496 34.6078 15.496V16H28.5838ZM42.6641 16V15.496C43.5281 15.496 44.0321 15.336 44.1761 15.016V2.56C43.3121 2.496 42.8081 2.464 42.6641 2.464V1.912C42.9681 1.912 43.7041 1.744 44.8721 1.408C46.0401 1.056 46.8081 0.879999 47.1761 0.879999V6.136C48.1361 5.512 49.0881 5.2 50.0321 5.2C51.6161 5.2 52.8161 5.456 53.6321 5.968C54.4481 6.48 54.8561 7.328 54.8561 8.512V15.016C55.0001 15.336 55.5041 15.496 56.3681 15.496V16H50.3441V15.496C51.2081 15.496 51.7121 15.336 51.8561 15.016V9.088C51.8561 7.984 51.6881 7.2 51.3521 6.736C51.0321 6.256 50.5441 6.016 49.8881 6.016C48.9281 6.016 48.0241 6.304 47.1761 6.88V15.016C47.3201 15.336 47.8241 15.496 48.6881 15.496V16H42.6641ZM57.609 14.752C57.609 14.288 57.769 13.92 58.089 13.648C58.425 13.36 58.809 13.216 59.241 13.216C59.625 13.216 60.001 13.352 60.369 13.624C60.737 13.88 60.921 14.232 60.921 14.68C60.921 15.144 60.753 15.52 60.417 15.808C60.081 16.096 59.697 16.24 59.265 16.24C58.881 16.24 58.505 16.104 58.137 15.832C57.785 15.56 57.609 15.2 57.609 14.752ZM62.4744 16V15.496C63.3384 15.496 63.8424 15.336 63.9864 15.016V6.88C63.1224 6.816 62.6184 6.784 62.4744 6.784V6.232C62.7784 6.232 63.5144 6.064 64.6824 5.728C65.8504 5.376 66.6184 5.2 66.9864 5.2V6.208C67.7864 5.536 68.6664 5.2 69.6264 5.2C71.1624 5.2 72.3544 5.488 73.2024 6.064C74.0504 6.624 74.4744 7.472 74.4744 8.608V15.016C74.6184 15.336 75.1224 15.496 75.9864 15.496V16H69.9624V15.496C70.8264 15.496 71.3304 15.336 71.4744 15.016V8.44C71.4744 7.72 71.3064 7.136 70.9704 6.688C70.6504 6.24 70.1544 6.016 69.4824 6.016C68.4904 6.016 67.6584 6.336 66.9864 6.976V15.016C67.1304 15.336 67.6344 15.496 68.4984 15.496V16H62.4744ZM87.645 5.2V15.304C87.645 16.904 87.173 18.216 86.229 19.24C85.301 20.28 84.061 20.8 82.509 20.8C81.037 20.8 79.869 20.608 79.005 20.224C78.141 19.84 77.709 19.328 77.709 18.688C77.709 17.664 78.141 17.152 79.005 17.152C79.325 17.152 79.589 17.264 79.797 17.488C80.005 17.712 80.109 17.976 80.109 18.28C80.109 18.792 79.909 19.128 79.509 19.288C79.941 19.72 80.861 19.936 82.269 19.936C83.005 19.936 83.565 19.616 83.949 18.976C84.333 18.352 84.557 17.264 84.621 15.712C83.949 16.064 83.125 16.24 82.149 16.24C81.621 16.24 81.077 16.16 80.517 16C79.973 15.824 79.413 15.544 78.837 15.16C78.261 14.776 77.789 14.208 77.421 13.456C77.069 12.688 76.893 11.792 76.893 10.768C76.893 8.992 77.445 7.624 78.549 6.664C79.653 5.688 81.029 5.2 82.677 5.2C83.701 5.2 84.565 5.44 85.269 5.92C86.469 5.44 87.261 5.2 87.645 5.2ZM84.645 14.944V14.44V6.352C84.149 6.128 83.541 6.016 82.821 6.016C80.949 6.016 80.013 7.6 80.013 10.768C80.013 11.696 80.093 12.496 80.253 13.168C80.429 13.824 80.645 14.304 80.901 14.608C81.173 14.912 81.429 15.128 81.669 15.256C81.909 15.368 82.149 15.424 82.389 15.424C83.253 15.424 84.005 15.264 84.645 14.944ZM97.1276 1.96V14.536C97.1276 14.872 97.3916 15.12 97.9196 15.28C98.4476 15.424 99.0396 15.496 99.6956 15.496V16H91.5836V15.496C92.2396 15.496 92.8316 15.424 93.3596 15.28C93.8876 15.12 94.1516 14.872 94.1516 14.536V5.56C93.3356 6.088 92.6156 6.592 91.9916 7.072L91.8236 6.664L96.0956 1.96H97.1276ZM104.933 7.504C105.477 7.248 106.069 7.12 106.709 7.12C109.989 7.12 111.629 8.576 111.629 11.488C111.629 12.944 111.181 14.104 110.285 14.968C109.405 15.816 108.245 16.24 106.805 16.24C105.253 16.24 104.013 15.712 103.085 14.656C102.157 13.584 101.693 12.24 101.693 10.624C101.693 9.28 101.941 8.032 102.437 6.88C102.949 5.712 103.581 4.768 104.333 4.048C105.085 3.312 105.853 2.728 106.637 2.296C107.421 1.864 108.149 1.608 108.821 1.528L109.133 2.344C106.845 2.92 105.445 4.64 104.933 7.504ZM104.813 8.272C104.733 8.88 104.693 9.664 104.693 10.624C104.693 12.336 104.869 13.576 105.221 14.344C105.573 15.096 106.101 15.472 106.805 15.472C108.021 15.472 108.629 14.08 108.629 11.296C108.629 10.896 108.621 10.592 108.605 10.384C108.605 10.16 108.573 9.872 108.509 9.52C108.445 9.152 108.349 8.872 108.221 8.68C108.109 8.488 107.925 8.32 107.669 8.176C107.413 8.016 107.109 7.936 106.757 7.936C105.909 7.936 105.261 8.048 104.813 8.272ZM113.651 17.2H122.387V18.256H113.651V17.2Z" fill="black"/>
</svg>
